<?xml version="1.0" encoding="iso-8859-1"?>
<!-- Generator: Adobe Illustrator 19.0.0, SVG Export Plug-In . SVG Version: 6.00 Build 0)  -->
<svg version="1.1" id="Layer_1" xmlns="http://www.w3.org/2000/svg" xmlns:xlink="http://www.w3.org/1999/xlink" x="0px" y="0px"
	 viewBox="0 0 512 512" style="enable-background:new 0 0 512 512;" xml:space="preserve">
<g>
	<g>
		<path d="M443.062,81.213C407.644,43.346,362.349,17.397,312.081,6.17C293.805,2.075,274.937,0,256.001,0
			C186.264,0,121.075,27.539,72.44,77.544C25.727,125.581,0,188.957,0,256.001c0,14.51,1.229,29.086,3.657,43.322
			c10.035,58.851,40.722,112.698,86.407,151.624C136.273,490.318,195.203,512,256.001,512c18.936,0,37.804-2.075,56.077-6.169
			c45.346-10.136,87.155-32.567,120.906-64.868c3.74-3.579,3.87-9.511,0.291-13.25c-3.579-3.74-9.511-3.868-13.25-0.291
			c-28.424,27.204-63.019,46.819-100.621,57.229V138.89c71.603,28.553,130.023,69.053,173.817,120.514
			c-0.768,53.056-19.454,104.752-52.837,145.917c-3.26,4.02-2.644,9.921,1.376,13.181c4.021,3.26,9.922,2.644,13.181-1.377
			C491.736,371.752,512,314.529,512,255.999C512,190.87,487.519,128.798,443.062,81.213z M300.661,489.046
			c-14.633,2.789-29.619,4.211-44.662,4.211c-56.345,0.001-110.959-20.092-153.78-56.575
			c-40.878-34.829-68.793-82.537-79.045-134.851c12.254-8.926,47.91-34.388,96.26-64.43c4.397-2.731,5.746-8.509,3.015-12.906
			c-2.733-4.396-8.509-5.746-12.906-3.014c-40.876,25.397-72.821,47.589-89.494,59.499c-0.867-8.29-1.307-16.646-1.307-24.98
			c0-60.842,22.873-118.417,64.471-162.584c18.902-0.054,106.539,1.563,203.196,33.465c-47.393,20.781-97.931,47.152-150.545,78.564
			c-4.444,2.654-5.895,8.406-3.242,12.85c1.754,2.939,4.864,4.568,8.055,4.568c1.634,0,3.29-0.429,4.794-1.327
			c54.438-32.502,106.55-59.489,155.19-80.398V489.046z M300.661,111.911C217.027,82.912,140.03,76.354,102.588,74.985
			c42.792-36.416,96.464-56.243,153.413-56.243c15.04,0,30.026,1.422,44.66,4.211V111.911z M319.403,113.13V27.318
			c36.604,10.1,70.025,28.782,97.946,54.722C386.979,88.985,354.153,99.402,319.403,113.13z M337.716,126.142
			c33.985-12.858,65.89-22.345,95.162-28.286c33.14,37.048,53.564,83.049,58.939,132.034
			C450.634,186.899,398.962,152.106,337.716,126.142z"/>
	</g>
</g>
<g>
</g>
<g>
</g>
<g>
</g>
<g>
</g>
<g>
</g>
<g>
</g>
<g>
</g>
<g>
</g>
<g>
</g>
<g>
</g>
<g>
</g>
<g>
</g>
<g>
</g>
<g>
</g>
<g>
</g>
</svg>
