<?xml version="1.0" encoding="utf-8"?>
<!-- Generator: Adobe Illustrator 24.0.1, SVG Export Plug-In . SVG Version: 6.00 Build 0)  -->
<svg version="1.1" id="Calque_1" focusable="false" xmlns="http://www.w3.org/2000/svg" xmlns:xlink="http://www.w3.org/1999/xlink"
	 x="0px" y="0px" viewBox="0 0 17.6 17.4" style="enable-background:new 0 0 17.6 17.4;" xml:space="preserve">
<path d="M3.8,13.1v3.4c0,0.5,0.4,0.9,0.9,0.9h5.5c0.5,0,0.9-0.4,0.9-0.9v-3.3c0.7-0.6,4.1-3.6,4.1-7.4c0-1-0.3-1.7-0.8-2
	c-0.4-0.3-1-0.2-1.6,0c0-0.8-0.3-1.5-0.7-2.1C10.6-0.1,7.7,0,7.4,0C7.2,0,4.8-0.1,3.2,1.4C2.4,2.2,2,3.3,2.1,4.7
	c0,0.5,0.1,0.9,0.3,1.3C2.4,8.1,2.7,11.1,3.8,13.1z M10.5,15.7H6.4v-1.2h4.1V15.7z M14.1,4.3c0.3,0.2,0.5,0.7,0.5,1.6
	c0,3.6-3.3,6.5-3.9,7h-4c-0.2,0-0.3,0.1-0.3,0.3s0.1,0.3,0.3,0.3h3.8V14H6.4c-0.3,0-0.6,0.3-0.6,0.6v1.2c0,0.3,0.3,0.6,0.6,0.6h4.1
	v0.3c0,0.2-0.1,0.3-0.3,0.3H4.7c-0.2,0-0.3-0.1-0.3-0.3v-3.2h0.9c0.2,0,0.3-0.1,0.3-0.3s-0.1-0.3-0.3-0.3h-1C3.4,11.1,3.1,8.7,3,7
	c1,1.2,2.8,2.1,4.8,2.1c1.9,0,4-0.9,4.8-3.6c0.1-0.4,0.2-0.8,0.2-1.2C13.2,4.2,13.7,4,14.1,4.3z M3.7,1.8c1.2-1.2,3.1-1.2,3.6-1.2
	c1.5,0,3.3,0.3,4.3,1.5c0.7,0.8,0.8,2,0.4,3.4c-1.4,5.2-9.2,3.2-9.3-0.8C2.6,3.5,3,2.5,3.7,1.8z"/>
<path d="M3.5,3.9C3.6,3.9,3.6,3.9,3.5,3.9c0.2,0,0.3-0.1,0.3-0.2c0.3-1.5,1.6-1.9,2.6-2.1c0.2,0,0.3-0.2,0.2-0.3
	c0-0.2-0.2-0.3-0.3-0.2c-1.1,0.1-2.6,0.7-3,2.4C3.3,3.7,3.4,3.8,3.5,3.9z"/>
<path d="M10.3,9.7C10.2,9.6,10,9.6,9.9,9.6l-1.3,0.9L7.3,9.6c-0.1,0-0.3,0-0.4,0.1c0,0.1,0,0.3,0.1,0.4l1.1,0.8L7,11.7
	c-0.1,0.1-0.1,0.2-0.1,0.3s0.1,0.2,0.2,0.2s0.2,0,0.3,0l1.3-0.9l1.3,0.9c0.1,0.1,0.2,0.1,0.3,0s0.2-0.1,0.2-0.2c0-0.1,0-0.2-0.1-0.3
	l-1.1-0.8l1.1-0.8C10.4,10,10.4,9.8,10.3,9.7z"/>
</svg>
